<svg width="86px" height="122px" xmlns="http://www.w3.org/2000/svg" viewBox="207 14 86 122" style="background: rgba(0, 0, 0, 0);" preserveAspectRatio="xMidYMid"><defs><filter id="editing-extrude-glow"><feFlood flood-color="#333333" result="flood-1"></feFlood><feMorphology operator="erode" radius="1" in="SourceAlpha" result="erode"></feMorphology><feComposite operator="in" in="flood-1" in2="erode" result="comp1"></feComposite><feConvolveMatrix order="3,3" divisor="1" in="comp1" result="convolve" kernelMatrix="0 0 0 1 1 1 0 0 0"></feConvolveMatrix><feOffset dx="-3" dy="0" in="convolve" result="extrude"></feOffset><feComposite operator="in" in="flood-1" in2="extrude" result="comp-extrude"></feComposite><feFlood flood-color="#000000" result="flood-2"></feFlood><feComposite operator="in" in="flood-2" in2="SourceAlpha" result="comp2"></feComposite><feMorphology operator="dilate" radius="1" in="comp2" result="dilate"></feMorphology><feOffset dx="-4.5" dy="0" in="dilate" result="offset"></feOffset><feGaussianBlur in="offset" stdDeviation="5.8" result="blur"></feGaussianBlur><feComponentTransfer in="blur" result="shadow"><feFuncA type="linear" slope="0.8" intercept="-0.2"></feFuncA></feComponentTransfer><feMerge><feMergeNode in="shadow"></feMergeNode><feMergeNode in="comp-extrude"></feMergeNode><feMergeNode in="SourceGraphic"></feMergeNode></feMerge></filter></defs><g filter="url(#editing-extrude-glow)"><g transform="translate(227.9547712802887, 97.30500030517578)"><path d="M14.14 0L0.51 0L7.81-38.91L8.51-42.24L22.21-42.24L14.14 0ZM40.13-3.78L40.13-3.78L40.13-3.78Q38.40 1.28 31.74 1.28L31.74 1.28L31.74 1.28Q26.82 1.28 23.42-4.61L23.42-4.61L23.42-4.61Q19.97-10.50 19.33-20.10L19.33-20.10L19.33-20.10Q26.37-32.96 31.23-38.27L31.23-38.27L31.23-38.27Q35.90-43.33 40.77-43.33L40.77-43.33L40.77-43.33Q43.39-43.33 45.28-41.92L45.28-41.92L45.28-41.92Q47.17-40.51 47.62-38.27L47.62-38.27L47.62-38.27Q45.44-37.38 44.42-36.67L44.42-36.67L44.42-36.67Q41.86-34.75 38.40-30.46L38.40-30.46L32.58-23.49L32.58-23.49Q31.17-21.82 30.59-21.06L30.59-21.06L30.59-21.06Q31.55-15.68 34.43-10.37L34.43-10.37L34.43-10.37Q37.18-5.31 40.13-3.78Z" fill="#eb6c6c"></path></g></g><style>text {
  font-size: 64px;
  font-family: Arial Black;
  dominant-baseline: central;
  text-anchor: middle;
}</style></svg>