<svg width="81.8px" height="122px" xmlns="http://www.w3.org/2000/svg" viewBox="209.1 14 81.8 122" style="background: rgba(0, 0, 0, 0);" preserveAspectRatio="xMidYMid"><defs><filter id="editing-extrude-glow"><feFlood flood-color="#333333" result="flood-1"></feFlood><feMorphology operator="erode" radius="1" in="SourceAlpha" result="erode"></feMorphology><feComposite operator="in" in="flood-1" in2="erode" result="comp1"></feComposite><feConvolveMatrix order="3,3" divisor="1" in="comp1" result="convolve" kernelMatrix="0 0 0 1 1 1 0 0 0"></feConvolveMatrix><feOffset dx="-3" dy="0" in="convolve" result="extrude"></feOffset><feComposite operator="in" in="flood-1" in2="extrude" result="comp-extrude"></feComposite><feFlood flood-color="#000000" result="flood-2"></feFlood><feComposite operator="in" in="flood-2" in2="SourceAlpha" result="comp2"></feComposite><feMorphology operator="dilate" radius="1" in="comp2" result="dilate"></feMorphology><feOffset dx="-4.5" dy="0" in="dilate" result="offset"></feOffset><feGaussianBlur in="offset" stdDeviation="5.8" result="blur"></feGaussianBlur><feComponentTransfer in="blur" result="shadow"><feFuncA type="linear" slope="0.8" intercept="-0.2"></feFuncA></feComponentTransfer><feMerge><feMergeNode in="shadow"></feMergeNode><feMergeNode in="comp-extrude"></feMergeNode><feMergeNode in="SourceGraphic"></feMergeNode></feMerge></filter></defs><g filter="url(#editing-extrude-glow)"><g transform="translate(227.2800076007843, 97.43000030517578)"><path d="M2.05-15.62L2.05-15.62L2.05-15.62Q2.05-27.71 8.32-35.33L8.32-35.33L8.32-35.33Q14.98-43.58 26.56-43.58L26.56-43.58L26.56-43.58Q34.94-43.58 39.17-39.52L39.17-39.52L39.17-39.52Q43.39-35.46 43.39-26.88L43.39-26.88L43.39-26.88Q43.39-13.82 36.74-6.21L36.74-6.21L36.74-6.21Q30.14 1.28 19.07 1.28L19.07 1.28L19.07 1.28Q10.43 1.28 6.24-3.04L6.24-3.04L6.24-3.04Q2.05-7.36 2.05-15.62ZM18.88-28.86L18.88-28.86L18.88-28.86Q16-17.34 16-8.26L16-8.26L16-8.26Q16-6.08 16.74-4.67L16.74-4.67L16.74-4.67Q17.47-3.26 19.42-3.26L19.42-3.26L19.42-3.26Q21.38-3.26 22.59-4.19L22.59-4.19L22.59-4.19Q23.81-5.12 24.77-7.23L24.77-7.23L24.77-7.23Q26.30-10.69 27.74-18.02L27.74-18.02L27.74-18.02Q29.18-25.34 29.31-28.38L29.31-28.38L29.31-28.38Q29.44-31.42 29.44-33.73L29.44-33.73L29.44-33.73Q29.44-36.03 28.74-37.50L28.74-37.50L28.74-37.50Q28.03-38.98 26.14-38.98L26.14-38.98L26.14-38.98Q24.26-38.98 22.98-37.82L22.98-37.82L22.98-37.82Q20.61-35.65 18.88-28.86Z" fill="#eb6c6c"></path></g></g><style>text {
  font-size: 64px;
  font-family: Arial Black;
  dominant-baseline: central;
  text-anchor: middle;
}</style></svg>