<svg width="82.40007324218749px" height="122px" xmlns="http://www.w3.org/2000/svg" viewBox="208.79996337890626 14 82.40007324218749 122" style="background: rgba(0, 0, 0, 0);" preserveAspectRatio="xMidYMid"><defs><filter id="editing-extrude-glow"><feFlood flood-color="#333333" result="flood-1"></feFlood><feMorphology operator="erode" radius="1" in="SourceAlpha" result="erode"></feMorphology><feComposite operator="in" in="flood-1" in2="erode" result="comp1"></feComposite><feConvolveMatrix order="3,3" divisor="1" in="comp1" result="convolve" kernelMatrix="0 0 0 1 1 1 0 0 0"></feConvolveMatrix><feOffset dx="-3" dy="0" in="convolve" result="extrude"></feOffset><feComposite operator="in" in="flood-1" in2="extrude" result="comp-extrude"></feComposite><feFlood flood-color="#000000" result="flood-2"></feFlood><feComposite operator="in" in="flood-2" in2="SourceAlpha" result="comp2"></feComposite><feMorphology operator="dilate" radius="1" in="comp2" result="dilate"></feMorphology><feOffset dx="-4.5" dy="0" in="dilate" result="offset"></feOffset><feGaussianBlur in="offset" stdDeviation="5.8" result="blur"></feGaussianBlur><feComponentTransfer in="blur" result="shadow"><feFuncA type="linear" slope="0.8" intercept="-0.2"></feFuncA></feComponentTransfer><feMerge><feMergeNode in="shadow"></feMergeNode><feMergeNode in="comp-extrude"></feMergeNode><feMergeNode in="SourceGraphic"></feMergeNode></feMerge></filter></defs><g filter="url(#editing-extrude-glow)"><g transform="translate(226.95119261741638, 102.52000045776367)"><path d="M7.23 0.83L8.64-3.84L8.64-3.84Q10.88-2.62 14.21-2.62L14.21-2.62L14.21-2.62Q17.54-2.62 20.32-4.64L20.32-4.64L20.32-4.64Q23.10-6.66 25.09-10.37L25.09-10.37L25.09-10.37Q29.18-18.24 29.18-30.91L29.18-30.91L29.18-30.91Q29.18-38.98 25.54-38.98L25.54-38.98L25.54-38.98Q23.62-38.98 21.76-36.86L21.76-36.86L21.76-36.86Q19.90-34.75 18.43-31.36L18.43-31.36L18.43-31.36Q15.23-23.62 15.23-14.53L15.23-14.53L15.23-14.53Q15.23-12.67 16.13-11.55L16.13-11.55L16.13-11.55Q17.02-10.43 18.62-10.43L18.62-10.43L18.62-10.43Q18.37-8.45 16.64-7.04L16.64-7.04L16.64-7.04Q14.91-5.63 12.74-5.63L12.74-5.63L12.74-5.63Q7.55-5.63 4.90-8.86L4.90-8.86L4.90-8.86Q2.24-12.10 2.24-17.95L2.24-17.95L2.24-17.95Q2.24-23.81 4.03-28.42L4.03-28.42L4.03-28.42Q5.82-33.02 8.96-36.38L8.96-36.38L8.96-36.38Q12.10-39.74 16.42-41.66L16.42-41.66L16.42-41.66Q20.74-43.58 25.86-43.58L25.86-43.58L25.86-43.58Q43.01-43.58 43.01-26.88L43.01-26.88L43.01-26.88Q43.01-14.85 37.25-7.49L37.25-7.49L37.25-7.49Q31.49-0.06 21.50 0.83L21.50 0.83L21.50 0.83Q27.39 2.11 33.34 2.11L33.34 2.11L33.34 2.11Q38.02 2.11 41.47 0.13L41.47 0.13L41.47 0.13Q42.43-0.45 42.82-1.09L42.82-1.09L42.82-1.09Q44.74 0.64 44.74 4.06L44.74 4.06L44.74 4.06Q44.74 7.49 41.70 9.47L41.70 9.47L41.70 9.47Q38.66 11.46 32.74 11.46L32.74 11.46L32.74 11.46Q26.82 11.46 19.97 8.70L19.97 8.70L19.97 8.70Q13.12 5.95 7.23 0.83L7.23 0.83Z" fill="#eb6c6c"></path></g></g><style>text {
  font-size: 64px;
  font-family: Arial Black;
  dominant-baseline: central;
  text-anchor: middle;
}</style></svg>