<?xml version="1.0" encoding="iso-8859-1"?>
<!-- Uploaded to: SVG Repo, www.svgrepo.com, Generator: SVG Repo Mixer Tools -->
<!DOCTYPE svg PUBLIC "-//W3C//DTD SVG 1.1//EN" "http://www.w3.org/Graphics/SVG/1.1/DTD/svg11.dtd">
<svg fill="#000000" height="800px" width="800px" version="1.1" id="Capa_1" xmlns="http://www.w3.org/2000/svg" xmlns:xlink="http://www.w3.org/1999/xlink" 
	 viewBox="0 0 395 395" xml:space="preserve">
<g>
	<path d="M313.002,0H82C36.785,0,0,36.784,0,81.998v230.993C0,358.211,36.785,395,82,395h231.002
		C358.216,395,395,358.211,395,312.991V81.998C395,36.784,358.216,0,313.002,0z M380,312.991C380,349.94,349.945,380,313.002,380H82
		c-36.944,0-67-30.06-67-67.009V81.998C15,45.056,45.056,15,82,15h231.002C349.945,15,380,45.056,380,81.998V312.991z"/>
	<circle cx="96.401" cy="173.058" r="40.558"/>
	<path d="M323.267,154.69h-9.56c-0.025,0-0.045-0.005-0.074-0.005H162.556c-13.996,0-25.346,11.348-25.346,25.35
		c0,13.998,11.35,25.344,25.346,25.344h9.636v35.747c0,11.198,9.077,20.276,20.276,20.276h130.799
		c11.198,0,20.279-9.078,20.279-20.276v-66.161C343.546,163.762,334.465,154.69,323.267,154.69z"/>
	<path d="M140.06,223.887H70.757c-10.659,0-19.303,8.645-19.303,19.303c0,10.666,8.644,19.311,19.303,19.311h69.304
		c10.665,0,19.31-8.645,19.31-19.311C159.37,232.531,150.726,223.887,140.06,223.887z"/>
</g>
</svg>