<svg width="81.19999999999999px" height="122px" xmlns="http://www.w3.org/2000/svg" viewBox="209.4 14 81.19999999999999 122" style="background: rgba(0, 0, 0, 0);" preserveAspectRatio="xMidYMid"><defs><filter id="editing-extrude-glow"><feFlood flood-color="#333333" result="flood-1"></feFlood><feMorphology operator="erode" radius="1" in="SourceAlpha" result="erode"></feMorphology><feComposite operator="in" in="flood-1" in2="erode" result="comp1"></feComposite><feConvolveMatrix order="3,3" divisor="1" in="comp1" result="convolve" kernelMatrix="0 0 0 1 1 1 0 0 0"></feConvolveMatrix><feOffset dx="-3" dy="0" in="convolve" result="extrude"></feOffset><feComposite operator="in" in="flood-1" in2="extrude" result="comp-extrude"></feComposite><feFlood flood-color="#000000" result="flood-2"></feFlood><feComposite operator="in" in="flood-2" in2="SourceAlpha" result="comp2"></feComposite><feMorphology operator="dilate" radius="1" in="comp2" result="dilate"></feMorphology><feOffset dx="-4.5" dy="0" in="dilate" result="offset"></feOffset><feGaussianBlur in="offset" stdDeviation="5.8" result="blur"></feGaussianBlur><feComponentTransfer in="blur" result="shadow"><feFuncA type="linear" slope="0.8" intercept="-0.2"></feFuncA></feComponentTransfer><feMerge><feMergeNode in="shadow"></feMergeNode><feMergeNode in="comp-extrude"></feMergeNode><feMergeNode in="SourceGraphic"></feMergeNode></feMerge></filter></defs><g filter="url(#editing-extrude-glow)"><g transform="translate(230.8444414138794, 97.33499908447266)"><path d="M3.07-39.87L3.07-39.87L3.07-39.87Q6.08-43.39 11.07-43.39L11.07-43.39L11.07-43.39Q15.04-43.39 17.15-41.86L17.15-41.86L17.15-41.86Q19.26-40.26 20.67-36.35L20.67-36.35L23.36-28.74L33.02-42.18L41.66-42.18L25.98-21.38L30.02-9.98L30.02-9.98Q30.91-7.42 32.48-5.54L32.48-5.54L32.48-5.54Q34.05-3.65 35.46-3.33L35.46-3.33L35.46-3.33Q34.18-0.90 31.97 0.19L31.97 0.19L31.97 0.19Q29.76 1.28 26.53 1.28L26.53 1.28L26.53 1.28Q23.30 1.28 21.02-0.83L21.02-0.83L21.02-0.83Q18.75-2.94 17.02-7.68L17.02-7.68L15.17-12.80L5.50 0L-2.37 0L12.35-20.42L7.74-33.28L7.74-33.28Q6.72-36.10 5.70-37.54L5.70-37.54L5.70-37.54Q4.67-38.98 3.07-39.87Z" fill="#eb6c6c"></path></g></g><style>text {
  font-size: 64px;
  font-family: Arial Black;
  dominant-baseline: central;
  text-anchor: middle;
}</style></svg>