<svg width="78.8px" height="122px" xmlns="http://www.w3.org/2000/svg" viewBox="210.6 14 78.8 122" style="background: rgba(0, 0, 0, 0);" preserveAspectRatio="xMidYMid"><defs><filter id="editing-extrude-glow"><feFlood flood-color="#333333" result="flood-1"></feFlood><feMorphology operator="erode" radius="1" in="SourceAlpha" result="erode"></feMorphology><feComposite operator="in" in="flood-1" in2="erode" result="comp1"></feComposite><feConvolveMatrix order="3,3" divisor="1" in="comp1" result="convolve" kernelMatrix="0 0 0 1 1 1 0 0 0"></feConvolveMatrix><feOffset dx="-3" dy="0" in="convolve" result="extrude"></feOffset><feComposite operator="in" in="flood-1" in2="extrude" result="comp-extrude"></feComposite><feFlood flood-color="#000000" result="flood-2"></feFlood><feComposite operator="in" in="flood-2" in2="SourceAlpha" result="comp2"></feComposite><feMorphology operator="dilate" radius="1" in="comp2" result="dilate"></feMorphology><feOffset dx="-4.5" dy="0" in="dilate" result="offset"></feOffset><feGaussianBlur in="offset" stdDeviation="5.8" result="blur"></feGaussianBlur><feComponentTransfer in="blur" result="shadow"><feFuncA type="linear" slope="0.8" intercept="-0.2"></feFuncA></feComponentTransfer><feMerge><feMergeNode in="shadow"></feMergeNode><feMergeNode in="comp-extrude"></feMergeNode><feMergeNode in="SourceGraphic"></feMergeNode></feMerge></filter></defs><g filter="url(#editing-extrude-glow)"><g transform="translate(229.94867324829102, 96.69499969482422)"><path d="M7.17 0L10.88-18.82L10.88-18.82Q9.02-36.16 2.50-39.87L2.50-39.87L2.50-39.87Q3.84-41.54 6.02-42.46L6.02-42.46L6.02-42.46Q8.19-43.39 10.82-43.39L10.82-43.39L10.82-43.39Q13.44-43.39 15.42-42.46L15.42-42.46L15.42-42.46Q17.41-41.54 18.69-39.55L18.69-39.55L18.69-39.55Q21.12-35.78 21.12-26.75L21.12-26.75L21.12-22.14L21.12-22.14Q24.96-33.41 28.80-38.27L28.80-38.27L28.80-38.27Q32.70-43.26 37.57-43.26L37.57-43.26L37.57-43.26Q39.49-43.26 40.77-42.27L40.77-42.27L40.77-42.27Q42.05-41.28 42.69-39.81L42.69-39.81L42.69-39.81Q37.76-37.63 33.02-31.36L33.02-31.36L33.02-31.36Q28.29-25.09 25.22-16.32L25.22-16.32L21.44 0L7.17 0Z" fill="#eb6c6c"></path></g></g><style>text {
  font-size: 64px;
  font-family: Arial Black;
  dominant-baseline: central;
  text-anchor: middle;
}</style></svg>