<svg width="71.6px" height="122px" xmlns="http://www.w3.org/2000/svg" viewBox="214.2 14 71.6 122" style="background: rgba(0, 0, 0, 0);" preserveAspectRatio="xMidYMid"><defs><filter id="editing-extrude-glow"><feFlood flood-color="#333333" result="flood-1"></feFlood><feMorphology operator="erode" radius="1" in="SourceAlpha" result="erode"></feMorphology><feComposite operator="in" in="flood-1" in2="erode" result="comp1"></feComposite><feConvolveMatrix order="3,3" divisor="1" in="comp1" result="convolve" kernelMatrix="0 0 0 1 1 1 0 0 0"></feConvolveMatrix><feOffset dx="-3" dy="0" in="convolve" result="extrude"></feOffset><feComposite operator="in" in="flood-1" in2="extrude" result="comp-extrude"></feComposite><feFlood flood-color="#000000" result="flood-2"></feFlood><feComposite operator="in" in="flood-2" in2="SourceAlpha" result="comp2"></feComposite><feMorphology operator="dilate" radius="1" in="comp2" result="dilate"></feMorphology><feOffset dx="-4.5" dy="0" in="dilate" result="offset"></feOffset><feGaussianBlur in="offset" stdDeviation="5.8" result="blur"></feGaussianBlur><feComponentTransfer in="blur" result="shadow"><feFuncA type="linear" slope="0.8" intercept="-0.2"></feFuncA></feComponentTransfer><feMerge><feMergeNode in="shadow"></feMergeNode><feMergeNode in="comp-extrude"></feMergeNode><feMergeNode in="SourceGraphic"></feMergeNode></feMerge></filter></defs><g filter="url(#editing-extrude-glow)"><g transform="translate(233.06539258360863, 96.1200008392334)"><path d="M30.21-33.92L30.21-33.92L30.21-33.92Q25.02-33.92 21.25-35.65L21.25-35.65L19.20-25.28L31.55-25.28L31.55-25.28Q31.55-21.89 29.86-19.74L29.86-19.74L29.86-19.74Q28.16-17.60 25.09-17.60L25.09-17.60L25.09-17.60Q21.76-17.60 18.69-18.82L18.69-18.82L18.69-18.82Q18.05-19.07 17.98-19.14L17.98-19.14L14.34 0L0.38 0L8.51-42.24L37.06-42.24L37.06-42.24Q37.06-38.34 35.23-36.13L35.23-36.13L35.23-36.13Q33.41-33.92 30.21-33.92Z" fill="#eb6c6c"></path></g></g><style>text {
  font-size: 64px;
  font-family: Arial Black;
  dominant-baseline: central;
  text-anchor: middle;
}</style></svg>