<svg width="78.8px" height="122px" xmlns="http://www.w3.org/2000/svg" viewBox="210.6 14 78.8 122" style="background: rgba(0, 0, 0, 0);" preserveAspectRatio="xMidYMid"><defs><filter id="editing-extrude-glow"><feFlood flood-color="#333333" result="flood-1"></feFlood><feMorphology operator="erode" radius="1" in="SourceAlpha" result="erode"></feMorphology><feComposite operator="in" in="flood-1" in2="erode" result="comp1"></feComposite><feConvolveMatrix order="3,3" divisor="1" in="comp1" result="convolve" kernelMatrix="0 0 0 1 1 1 0 0 0"></feConvolveMatrix><feOffset dx="-3" dy="0" in="convolve" result="extrude"></feOffset><feComposite operator="in" in="flood-1" in2="extrude" result="comp-extrude"></feComposite><feFlood flood-color="#000000" result="flood-2"></feFlood><feComposite operator="in" in="flood-2" in2="SourceAlpha" result="comp2"></feComposite><feMorphology operator="dilate" radius="1" in="comp2" result="dilate"></feMorphology><feOffset dx="-4.5" dy="0" in="dilate" result="offset"></feOffset><feGaussianBlur in="offset" stdDeviation="5.8" result="blur"></feGaussianBlur><feComponentTransfer in="blur" result="shadow"><feFuncA type="linear" slope="0.8" intercept="-0.2"></feFuncA></feComponentTransfer><feMerge><feMergeNode in="shadow"></feMergeNode><feMergeNode in="comp-extrude"></feMergeNode><feMergeNode in="SourceGraphic"></feMergeNode></feMerge></filter></defs><g filter="url(#editing-extrude-glow)"><g transform="translate(227.74681973457336, 96.76000022888184)"><path d="M2.30-9.47L2.30-9.47L2.30-9.47Q2.30-11.97 2.94-15.17L2.94-15.17L8.13-42.24L22.27-42.24L17.15-14.98L17.15-14.98Q16.58-11.97 16.58-9.76L16.58-9.76L16.58-9.76Q16.58-7.55 17.50-6.40L17.50-6.40L17.50-6.40Q18.43-5.25 20.16-5.25L20.16-5.25L20.16-5.25Q21.89-5.25 22.98-5.70L22.98-5.70L22.98-5.70Q24.06-6.14 24.96-7.23L24.96-7.23L24.96-7.23Q26.69-9.41 27.78-14.98L27.78-14.98L32.96-42.24L42.62-42.24L37.50-15.04L37.50-15.04Q35.71-5.95 30.78-2.30L30.78-2.30L30.78-2.30Q25.98 1.28 16.51 1.28L16.51 1.28L16.51 1.28Q9.41 1.28 5.63-1.79L5.63-1.79L5.63-1.79Q2.30-4.48 2.30-9.47Z" fill="#eb6c6c"></path></g></g><style>text {
  font-size: 64px;
  font-family: Arial Black;
  dominant-baseline: central;
  text-anchor: middle;
}</style></svg>